<svg width="5872" height="1230" viewBox="0 0 5872 1230" fill="none" xmlns="http://www.w3.org/2000/svg">
<path d="M135.6 0.0139635C138.649 -0.152405 152.611 1.21036 155.993 1.84117C162.293 1.3637 169.096 2.75658 175.441 3.23904C187.269 4.13846 198.908 6.63432 210.607 8.27484C225.223 9.08555 247.154 15.2262 262.098 18.0219C266.151 18.7801 278.919 22.5335 281.925 22.5149C283.676 23.5461 284.919 24.0537 285.38 26.2218C286.237 30.2414 276.759 78.1701 275.297 86.6118L222.726 386.25C216.538 419.373 210.714 452.564 205.257 485.817C204.29 491.832 200.368 509.663 200.248 514.262L201.099 514.131C202.068 510.663 202.905 507.765 204.123 504.385C206.063 500.265 207.709 493.357 209.214 488.803C210.912 483.662 212.655 478.977 214.579 473.905C215.006 470.907 218.799 460.425 219.96 456.908L235.252 411.9L344.204 89.3083C346.517 82.6344 356.083 52.2953 358.37 48.3541C363.425 47.0272 374.619 52.7072 379.722 54.7931C400.97 63.4171 421.843 72.9447 442.281 83.3501C447.564 86.0379 461.692 92.4002 465.099 96.388C464.569 100.422 448.035 130.58 445.224 135.979C432.236 161.25 419.113 186.452 405.856 211.582L255.242 501.965C244.672 522.712 232.949 546.337 221.789 566.627C220.641 569.162 215.734 578.97 215.559 580.465C216.656 580.104 216.428 580.284 217.336 579.638C227.054 566.961 237.706 550.17 246.827 536.655L293.667 467.749L502.373 161.554C506.852 154.972 518.168 137.037 523.145 132.423C529.348 131.616 585.026 176.797 592.043 182.825C593.159 183.787 593.547 184.764 593.749 186.166C591.682 191.977 555.497 236.065 549.568 243.671L275.419 594.216C269.42 601.894 263.802 609.675 257.413 617.101C253.575 622.375 243.14 635.304 240.364 639.997C246.231 635.748 255.972 625.288 261.484 619.867C278.064 602.282 297.361 583.773 314.607 566.659L381.279 499.874L431.247 450.021C438.844 442.43 448.806 431.556 456.665 424.765C468.539 412.107 481.715 399.907 493.802 387.248C494.716 385.908 502.263 378.957 503.773 377.708C505.594 375.202 515.073 365.966 517.889 363.199C527.111 354.147 536.387 344.408 545.778 335.598C548.195 332.531 551.903 329.279 554.671 326.4C560.556 320.27 566.523 314.226 572.561 308.247L609.293 271.275C615.72 264.816 622.611 258.412 628.83 251.806C634.649 247.029 637.247 240.784 645.101 235.872C648.394 235.868 649.001 236.255 651.38 238.472C655.996 242.764 660.579 247.767 664.495 252.693C667.394 255.492 681.248 270.622 683.129 273.677C687.089 276.731 701.025 293.848 702.299 299.352C702.857 301.749 693.155 309.349 690.529 311.635L671.091 328.539L415.117 552.952C380.978 583.285 346.651 613.405 312.136 643.305C309.411 645.632 299.664 655.216 297.483 656.169C292.199 660.824 286.822 666.108 281.692 670.987C283.92 669.821 287.82 667.039 289.395 666.398C294.853 662.204 305.836 655.583 312.159 651.47L717.346 387.793C724.587 383.06 735.712 375.206 742.723 371.18C745.453 368.732 751.431 366.458 753.908 370.31C766.455 389.822 776.923 410.67 788.124 430.98C789.946 434.283 791.472 437.948 790.225 441.649C732.6 474.545 675.15 507.754 617.885 541.277C567.83 569.753 517.96 598.542 468.266 627.643L384.334 676.267C380.462 678.474 364.625 688.254 361.549 689.136C358.242 691.178 355.038 692.931 352.294 695.691L352.156 696.616C353.581 697.082 356.218 696.288 357.614 695.724C360.514 694.273 368.652 691.786 372.2 690.62L400.622 681.321L731.714 571.676C761.204 561.9 790.706 552.082 820.18 542.246C823.489 541.145 826.656 540.089 830.162 540.143C831.639 540.581 832.798 540.609 833.493 542.153C836.205 548.188 851.897 605.108 850.836 607.474C850.579 608.054 850.065 608.662 849.693 609.161C842.714 611.674 832.295 613.81 824.961 615.562C813.283 618.377 801.623 621.263 789.979 624.209L510.09 693.588C490.089 698.736 470.049 703.746 449.982 708.626C442.215 710.553 429.028 714.403 421.894 715.668C416.701 717.092 400.244 720.225 397.103 722.771L396.972 723.888C397.845 724.556 397.714 724.584 398.701 724.956C403.158 723.061 429.234 721.785 436.206 721.03C472.302 717.147 508.444 713.702 544.624 710.696L778.17 687.909C805.473 685.045 832.897 682.521 860.21 679.64C861.605 679.492 862.289 679.859 863.383 680.637C864.542 682.28 864.52 682.373 864.766 684.421C866.555 692.646 871.384 746.532 869.618 752.074C865.751 753.887 805.216 753.109 794.491 753.104L214.722 752.923C219.523 771.975 218.42 795.424 212.258 814.038C210.051 820.703 206.459 828.632 202.865 834.645C187.934 859.65 163.719 877.711 135.52 884.879C107.926 891.719 76.7732 887.185 52.2552 872.568C31.6631 860.291 10.7708 835.987 5.0985 812.379C-0.995995 796.366 -1.70209 766.641 3.38714 750.607C5.54589 744.232 6.69172 739.791 9.48546 733.439C18.1008 714.058 32.3096 697.701 50.2846 686.469C73.0316 672.307 103.941 666.119 130.091 672.269C131.341 672.384 132.567 672.565 133.811 672.734C134.954 671.272 134.505 651.322 134.509 647.357L134.409 41.0805C134.39 28.9523 134.279 16.6157 134.339 4.4776C134.347 2.7315 134.728 1.51134 135.6 0.0139635Z" fill="white"/>
<path d="M2832.78 1221.29V894.314H3013.88V933.73H2876.28V1036.3L3006.33 1035.86V1075.27L2876.28 1075.72V1221.29H2832.78Z" fill="white"/>
<path d="M3220.12 1229.36C3191.12 1229.36 3166.12 1224.13 3145.11 1213.68C3124.1 1203.23 3106.79 1189.49 3093.18 1172.47C3079.57 1155.45 3069.36 1137.23 3062.55 1117.82C3056.04 1098.41 3052.79 1079.75 3052.79 1061.83V1051.98C3052.79 1032.57 3056.19 1013.01 3063 993.303C3069.8 973.595 3080.16 955.678 3094.07 939.553C3107.97 923.13 3125.28 909.991 3146 900.137C3167.01 890.283 3191.72 885.355 3220.12 885.355C3248.53 885.355 3273.09 890.283 3293.8 900.137C3314.81 909.991 3332.27 923.13 3346.18 939.553C3360.09 955.678 3370.44 973.595 3377.25 993.303C3384.05 1013.01 3387.46 1032.57 3387.46 1051.98V1061.83C3387.46 1079.75 3384.05 1098.41 3377.25 1117.82C3370.74 1137.23 3360.68 1155.45 3347.07 1172.47C3333.45 1189.49 3316.14 1203.23 3295.13 1213.68C3274.13 1224.13 3249.12 1229.36 3220.12 1229.36ZM3220.12 1189.04C3239.06 1189.04 3256.07 1185.46 3271.17 1178.29C3286.55 1171.13 3299.57 1161.42 3310.23 1149.18C3320.88 1136.64 3329.02 1122.6 3334.64 1107.07C3340.26 1091.25 3343.07 1074.67 3343.07 1057.36C3343.07 1033.17 3338.04 1011.22 3327.98 991.512C3318.21 971.505 3304.16 955.529 3285.81 943.585C3267.47 931.64 3245.57 925.668 3220.12 925.668C3194.97 925.668 3173.07 931.64 3154.43 943.585C3136.09 955.529 3121.88 971.505 3111.82 991.512C3102.06 1011.22 3097.17 1033.17 3097.17 1057.36C3097.17 1074.67 3099.99 1091.25 3105.61 1107.07C3111.23 1122.6 3119.37 1136.64 3130.02 1149.18C3140.67 1161.42 3153.54 1171.13 3168.64 1178.29C3184.02 1185.46 3201.18 1189.04 3220.12 1189.04Z" fill="white"/>
<path d="M3582.86 1229.36C3553.56 1229.36 3528.85 1223.68 3508.73 1212.33C3488.91 1200.69 3473.82 1184.56 3463.46 1163.96C3453.4 1143.06 3448.37 1118.87 3448.37 1091.4V894.314H3491.87V1096.77C3491.87 1124.24 3499.71 1146.49 3515.39 1163.51C3531.07 1180.53 3553.56 1189.04 3582.86 1189.04C3611.86 1189.04 3634.2 1180.68 3649.88 1163.96C3665.56 1146.94 3673.4 1124.54 3673.4 1096.77V894.314H3716.9V1091.4C3716.9 1118.87 3711.87 1143.06 3701.81 1163.96C3691.75 1184.56 3676.81 1200.69 3656.98 1212.33C3637.16 1223.68 3612.45 1229.36 3582.86 1229.36Z" fill="white"/>
<path d="M3800.38 1221.29V894.314H3871.39L4036.06 1181.88H4041.39V894.314H4083.11V1221.29H4011.21L3846.54 933.73H3841.21V1221.29H3800.38Z" fill="white"/>
<path d="M4172.61 1223.08V892.522H4283.57C4312.87 892.522 4338.31 897.151 4359.92 906.408C4381.52 915.366 4399.42 927.609 4413.62 943.137C4428.12 958.366 4438.92 975.536 4446.02 994.647C4453.13 1013.46 4456.68 1032.72 4456.68 1052.43V1062.28C4456.68 1081.39 4453.13 1100.5 4446.02 1119.62C4438.92 1138.73 4428.12 1156.05 4413.62 1171.57C4399.42 1187.1 4381.52 1199.64 4359.92 1209.2C4338.31 1218.46 4312.87 1223.08 4283.57 1223.08H4172.61ZM4288.01 932.835H4216.11V1182.77H4288.01C4314.05 1182.77 4336.24 1177.25 4354.59 1166.2C4373.23 1155.15 4387.43 1140.22 4397.2 1121.41C4407.26 1102.3 4412.29 1080.95 4412.29 1057.36C4412.29 1032.87 4407.26 1011.37 4397.2 992.855C4387.43 974.043 4373.23 959.411 4354.59 948.96C4336.24 938.21 4314.05 932.835 4288.01 932.835Z" fill="white"/>
<path d="M4474.24 1221.29L4590.98 894.314H4664.66L4784.94 1221.29H4740.11L4704.6 1123.65H4552.36L4517.74 1221.29H4474.24ZM4566.12 1084.23H4689.96L4635.36 933.73H4618.94L4566.12 1084.23Z" fill="white"/>
<path d="M4878.24 1221.29V933.73H4779.7V894.314H5020.27V933.73H4921.74V1221.29H4878.24Z" fill="white"/>
<path d="M5075.2 1221.29V894.314H5118.7V1221.29H5075.2Z" fill="white"/>
<path d="M5354.59 1229.36C5325.59 1229.36 5300.58 1224.13 5279.58 1213.68C5258.57 1203.23 5241.26 1189.49 5227.64 1172.47C5214.03 1155.45 5203.82 1137.23 5197.02 1117.82C5190.51 1098.41 5187.25 1079.75 5187.25 1061.83V1051.98C5187.25 1032.57 5190.66 1013.01 5197.46 993.303C5204.27 973.595 5214.62 955.678 5228.53 939.553C5242.44 923.13 5259.75 909.991 5280.46 900.137C5301.47 890.283 5326.18 885.355 5354.59 885.355C5382.99 885.355 5407.55 890.283 5428.27 900.137C5449.28 909.991 5466.74 923.13 5480.64 939.553C5494.55 955.678 5504.91 973.595 5511.71 993.303C5518.52 1013.01 5521.92 1032.57 5521.92 1051.98V1061.83C5521.92 1079.75 5518.52 1098.41 5511.71 1117.82C5505.2 1137.23 5495.14 1155.45 5481.53 1172.47C5467.92 1189.49 5450.61 1203.23 5429.6 1213.68C5408.59 1224.13 5383.59 1229.36 5354.59 1229.36ZM5354.59 1189.04C5373.53 1189.04 5390.54 1185.46 5405.63 1178.29C5421.02 1171.13 5434.04 1161.42 5444.69 1149.18C5455.34 1136.64 5463.48 1122.6 5469.1 1107.07C5474.72 1091.25 5477.54 1074.67 5477.54 1057.36C5477.54 1033.17 5472.51 1011.22 5462.44 991.512C5452.68 971.505 5438.62 955.529 5420.28 943.585C5401.93 931.64 5380.04 925.668 5354.59 925.668C5329.44 925.668 5307.54 931.64 5288.9 943.585C5270.55 955.529 5256.35 971.505 5246.29 991.512C5236.52 1011.22 5231.64 1033.17 5231.64 1057.36C5231.64 1074.67 5234.45 1091.25 5240.07 1107.07C5245.69 1122.6 5253.83 1136.64 5264.48 1149.18C5275.14 1161.42 5288.01 1171.13 5303.1 1178.29C5318.49 1185.46 5335.65 1189.04 5354.59 1189.04Z" fill="white"/>
<path d="M5589.05 1221.29V894.314H5660.06L5824.74 1181.88H5830.06V894.314H5871.78V1221.29H5799.88L5635.21 933.73H5629.88V1221.29H5589.05Z" fill="white"/>
<path d="M1213.78 720.6V153.665H1324.04V623.522H1553.09V720.6H1213.78Z" fill="white"/>
<path d="M1890.9 735.355C1839.65 735.355 1795.14 726.295 1757.35 708.174C1719.56 690.052 1688.25 666.495 1663.4 637.501C1639.07 607.989 1620.95 576.407 1609.05 542.753C1597.14 508.581 1591.19 475.704 1591.19 444.122V427.036C1591.19 392.347 1597.4 357.917 1609.82 323.745C1622.25 289.574 1640.88 258.509 1665.73 230.55C1691.09 202.074 1722.41 179.552 1759.68 162.984C1796.95 145.898 1840.69 137.355 1890.9 137.355C1940.07 137.355 1983.3 145.898 2020.57 162.984C2058.35 179.552 2089.67 202.074 2114.52 230.55C2139.36 258.509 2158 289.574 2170.42 323.745C2183.36 357.917 2189.83 392.347 2189.83 427.036V444.122C2189.83 475.704 2183.62 508.581 2171.2 542.753C2159.29 576.407 2140.92 607.989 2116.07 637.501C2091.74 666.495 2060.68 690.052 2022.9 708.174C1985.63 726.295 1941.63 735.355 1890.9 735.355ZM1890.9 632.841C1929.2 632.841 1962.33 624.039 1990.28 606.436C2018.24 588.315 2039.72 564.239 2054.73 534.21C2070.26 504.181 2078.02 471.562 2078.02 436.355C2078.02 399.078 2070.26 365.683 2054.73 336.171C2039.72 306.142 2018.24 282.584 1990.28 265.498C1962.33 248.413 1929.2 239.87 1890.9 239.87C1852.08 239.87 1818.69 248.413 1790.74 265.498C1762.78 282.584 1741.04 306.142 1725.51 336.171C1710.5 365.683 1703 399.078 1703 436.355C1703 471.562 1710.5 504.181 1725.51 534.21C1740.53 564.239 1762.01 588.315 1789.96 606.436C1818.43 624.039 1852.08 632.841 1890.9 632.841Z" fill="white"/>
<path d="M2544.08 735.355C2492.31 735.355 2448.06 726.295 2411.3 708.174C2375.07 690.052 2345.31 666.495 2322.01 637.501C2299.24 608.507 2282.41 577.183 2271.54 543.529C2260.67 509.358 2255.24 476.222 2255.24 444.122V427.036C2255.24 392.347 2260.67 357.917 2271.54 323.745C2282.93 289.056 2300.27 257.732 2323.56 229.774C2346.86 201.815 2376.36 179.552 2412.08 162.984C2447.8 145.898 2490.5 137.355 2540.19 137.355C2590.92 137.355 2635.44 146.675 2673.74 165.314C2712.05 183.953 2742.59 209.84 2765.37 242.976C2788.14 276.112 2801.86 314.943 2806.52 359.47H2695.49C2689.27 320.639 2671.93 291.127 2643.46 270.935C2615.51 250.225 2581.09 239.87 2540.19 239.87C2502.41 239.87 2470.57 248.413 2444.69 265.498C2419.33 282.066 2399.92 305.106 2386.46 334.618C2373.52 364.13 2367.05 398.042 2367.05 436.355C2367.05 473.633 2373.78 507.028 2387.23 536.54C2400.69 566.052 2420.62 589.609 2447.02 607.213C2473.42 624.298 2505.77 632.841 2544.08 632.841C2586.52 632.841 2622.24 622.486 2651.23 601.776C2680.73 580.549 2698.59 551.037 2704.8 513.241H2815.83C2810.66 554.143 2796.68 591.421 2773.91 625.075C2751.65 658.729 2721.11 685.652 2682.29 705.844C2643.98 725.518 2597.91 735.355 2544.08 735.355Z" fill="white"/>
<path d="M2839.9 720.6L3033.24 153.665H3213.37L3412.14 720.6H3298.78L3246.76 569.935H2999.85L2950.16 720.6H2839.9ZM3030.91 476.74H3214.93L3136.5 246.083H3107.77L3030.91 476.74Z" fill="white"/>
<path d="M3488.58 720.6V153.665H3598.83V623.522H3827.89V720.6H3488.58Z" fill="white"/>
<path d="M3909.98 720.6V153.665H4253.17V246.859H4017.91V385.875H4239.2V479.07H4017.91V627.405H4259.39V720.6H3909.98Z" fill="white"/>
<path d="M4364.75 720.6V153.665H4545.67L4784.04 628.958H4794.13V153.665H4898.18V720.6H4716.49L4478.12 245.306H4467.24V720.6H4364.75Z" fill="white"/>
<path d="M5030.32 720.6V153.665H5140.57V623.522H5369.63V720.6H5030.32Z" fill="white"/>
<path d="M5451.72 720.6V149.781H5647.39C5718.82 149.781 5773.95 167.126 5812.77 201.815C5852.12 235.987 5871.78 282.584 5871.78 341.607V354.033C5871.78 413.057 5852.12 459.913 5812.77 494.602C5773.95 529.291 5718.82 546.636 5647.39 546.636H5561.98V720.6H5451.72ZM5656.71 245.306H5561.98V451.111H5656.71C5689.84 451.111 5715.2 441.533 5732.8 422.376C5750.92 403.22 5759.98 378.368 5759.98 347.82C5759.98 317.273 5750.92 292.68 5732.8 274.041C5715.2 254.884 5689.84 245.306 5656.71 245.306Z" fill="white"/>
</svg>
