<svg width="887" height="904" viewBox="0 0 887 904" fill="none" xmlns="http://www.w3.org/2000/svg">
<path d="M138.127 0.0142095C141.233 -0.15509 155.456 1.23168 158.901 1.87361C165.317 1.38772 172.248 2.80515 178.711 3.29611C190.759 4.21137 202.616 6.75121 214.532 8.42063C229.421 9.24562 251.761 15.4944 266.983 18.3394C271.111 19.1109 284.118 22.9305 287.18 22.9116C288.964 23.9609 290.229 24.4775 290.699 26.6838C291.572 30.7742 281.917 79.5473 280.429 88.1377L226.877 393.054C220.574 426.762 214.642 460.538 209.083 494.376C208.098 500.497 204.102 518.642 203.98 523.323L204.847 523.189C205.835 519.66 206.686 516.711 207.928 513.271C209.904 509.079 211.581 502.049 213.113 497.415C214.843 492.183 216.619 487.415 218.578 482.255C219.013 479.203 222.877 468.537 224.06 464.958L239.637 419.157L301.592 236.128L350.619 90.8817C352.976 84.0902 362.72 53.2167 365.049 49.206C370.198 47.8557 381.601 53.6358 386.799 55.7584C408.444 64.5344 429.705 74.2298 450.524 84.8186C455.906 87.5537 470.297 94.0281 473.768 98.0861C473.228 102.192 456.385 132.88 453.522 138.375C440.292 164.091 426.925 189.736 413.42 215.309L291.84 449.544L260 510.809C249.233 531.922 237.291 555.962 225.923 576.609C224.754 579.19 219.755 589.17 219.577 590.692C220.694 590.324 220.461 590.508 221.386 589.85C231.286 576.949 242.136 559.863 251.428 546.11L299.14 475.99L468.514 227.731L511.736 164.401C516.299 157.703 527.826 139.451 532.896 134.756C539.214 133.934 595.93 179.912 603.078 186.046C604.214 187.025 604.61 188.019 604.816 189.446C602.71 195.359 565.85 240.224 559.811 247.964L410.223 438.889L313.489 562.56L280.553 604.685C274.441 612.498 268.719 620.417 262.21 627.973C258.302 633.34 247.672 646.497 244.844 651.273C250.821 646.948 260.742 636.304 266.358 630.787C283.247 612.893 302.903 594.058 320.471 576.643L388.386 508.681L439.285 457.95C447.023 450.225 457.171 439.159 465.177 432.248C477.272 419.367 490.693 406.953 503.006 394.071C503.936 392.707 511.625 385.634 513.162 384.362C515.018 381.812 524.673 372.414 527.542 369.598C536.935 360.386 546.384 350.476 555.95 341.511C558.413 338.39 562.19 335.081 565.009 332.151C571.004 325.912 577.082 319.762 583.233 313.678L620.649 276.054C627.196 269.481 634.215 262.965 640.55 256.242C646.478 251.382 649.124 245.026 657.125 240.027C660.479 240.023 661.097 240.417 663.52 242.674C668.223 247.042 672.891 252.132 676.88 257.145C679.833 259.994 693.945 275.389 695.862 278.499C699.895 281.606 714.091 299.025 715.389 304.626C715.957 307.065 706.074 314.799 703.4 317.125L683.599 334.327L620.9 389.164L422.854 562.694C388.079 593.562 353.112 624.212 317.953 654.639C315.178 657.007 305.25 666.76 303.028 667.729C297.645 672.466 292.168 677.844 286.942 682.809C289.212 681.622 293.184 678.791 294.789 678.139C300.349 673.87 311.536 667.133 317.977 662.948L364.5 632.749L511.853 537.021L678.63 428.478L730.716 394.625C738.092 389.809 749.424 381.816 756.567 377.719C759.347 375.228 765.436 372.914 767.96 376.834C780.74 396.69 791.404 417.905 802.814 438.573C804.669 441.935 806.223 445.664 804.953 449.43C746.254 482.905 687.733 516.7 629.402 550.813C578.413 579.791 527.614 609.087 476.994 638.701L391.497 688.181C387.553 690.427 371.421 700.38 368.288 701.277C364.919 703.356 361.656 705.139 358.861 707.948L358.72 708.889C360.172 709.363 362.857 708.555 364.279 707.981C367.234 706.504 375.523 703.974 379.137 702.787L408.089 693.325L511.057 659.27L745.352 581.747C775.392 571.8 805.443 561.808 835.467 551.799C838.838 550.679 842.064 549.604 845.635 549.66C847.139 550.105 848.32 550.133 849.028 551.705C851.791 557.846 867.775 615.769 866.694 618.176C866.432 618.767 865.909 619.386 865.53 619.893C858.421 622.451 847.808 624.624 840.336 626.407C828.442 629.272 816.564 632.209 804.703 635.207L661.025 670.761L519.597 705.808C499.223 711.046 478.81 716.145 458.369 721.11C450.458 723.072 437.025 726.99 429.757 728.277C424.468 729.726 407.704 732.913 404.504 735.505L404.371 736.642C405.26 737.321 405.126 737.349 406.132 737.728C410.672 735.8 437.235 734.502 444.336 733.733C481.105 729.782 517.92 726.276 554.774 723.217L792.674 700.029C820.486 697.114 848.42 694.545 876.243 691.614C877.664 691.463 878.361 691.837 879.475 692.628C880.656 694.3 880.634 694.395 880.884 696.479C882.706 704.849 887.626 759.685 885.826 765.325C881.887 767.169 820.224 766.378 809.299 766.372L675.293 766.35L218.724 766.188C223.614 785.576 222.491 809.438 216.214 828.38C213.966 835.162 210.307 843.231 206.646 849.35C191.437 874.795 166.771 893.174 138.045 900.469C109.937 907.429 78.2042 902.815 53.2292 887.941C32.2533 875.447 10.9715 850.716 5.19353 826.692C-1.01456 810.397 -1.73381 780.148 3.45027 763.831C5.64926 757.344 6.81644 752.825 9.66226 746.36C18.4382 726.639 32.9118 709.993 51.2219 698.563C74.3928 684.152 105.878 677.855 132.515 684.113C133.789 684.23 135.038 684.414 136.305 684.587C137.469 683.099 137.012 662.797 137.016 658.763L136.992 563.179L136.974 121.876L136.914 41.8043C136.895 29.4623 136.782 16.9084 136.843 4.55649C136.851 2.77962 137.239 1.53796 138.127 0.0142095Z" fill="#0C0C0C"/>
</svg>
